<?xml version="1.0" encoding="UTF-8"?>
<svg version="1.1" xmlns="http://www.w3.org/2000/svg" width="1024" height="1024">
<path d="M0 0 C337.92 0 675.84 0 1024 0 C1024 337.92 1024 675.84 1024 1024 C686.08 1024 348.16 1024 0 1024 C0 686.08 0 348.16 0 0 Z " fill="#FDFDFD" transform="translate(0,0)"/>
<path d="M0 0 C17.82 0 35.64 0 54 0 C54 66.66 54 133.32 54 202 C126.6077122 204.7347083 126.6077122 204.7347083 188.8984375 177.53125 C191 176 191 176 194 175 C194 196.78 194 218.56 194 241 C170.19221976 250.5231121 170.19221976 250.5231121 159 253 C157.9167897 253.26754593 156.83357941 253.53509186 155.71754456 253.81074524 C141.14317447 256.92853312 126.32738721 256.38809803 111.50382233 256.30384064 C107.95928694 256.28653268 104.41481749 256.28593935 100.87023926 256.28381348 C90.55928804 256.26818037 80.24839008 256.22629673 69.9375 256.1875 C46.858125 256.125625 23.77875 256.06375 0 256 C0 171.52 0 87.04 0 0 Z " fill="#6A8685" transform="translate(298,425)"/>
<path d="M0 0 C0 106.59 0 213.18 0 323 C-17.10786645 323 -29.48018473 319.92939726 -42 308.125 C-52.6445267 296.81519038 -56.36115499 281.71036462 -56.22705078 266.51123047 C-56.22734283 265.62219528 -56.22763489 264.7331601 -56.22793579 263.81718445 C-56.22655709 260.91708155 -56.21106561 258.01724478 -56.1953125 255.1171875 C-56.19157717 253.09123881 -56.18873265 251.06528831 -56.18673706 249.03933716 C-56.17914158 243.73591018 -56.15952861 238.43259469 -56.1373291 233.12921143 C-56.11316257 226.75056257 -56.10407022 220.37187622 -56.09242249 213.99319458 C-56.07310153 204.32871911 -56.03475046 194.66448773 -56 185 C-81.08 185 -106.16 185 -132 185 C-131.67 181.7 -131.34 178.4 -131 175 C-130.82954225 170.58929829 -130.81416251 166.18387286 -130.81469727 161.77001953 C-130.81251872 159.76721093 -130.79402517 157.76444184 -130.77539062 155.76171875 C-130.77249023 153.79912109 -130.77249023 153.79912109 -130.76953125 151.796875 C-130.76542236 150.63510742 -130.76131348 149.47333984 -130.75708008 148.27636719 C-131.10517944 142.14841911 -132.13198018 136.07613877 -133 130 C-107.59 130 -82.18 130 -56 130 C-56.02320313 124.06386719 -56.04640625 118.12773437 -56.0703125 112.01171875 C-56.08054084 108.23371954 -56.09016946 104.45573759 -56.09765625 100.67773438 C-56.10957602 94.69128845 -56.1236228 88.70490416 -56.15087891 82.71850586 C-56.17273276 77.88797648 -56.18459491 73.05751328 -56.18975449 68.22693825 C-56.19342784 66.39111096 -56.20060052 64.55528698 -56.21146011 62.71948814 C-56.31634447 44.24108234 -54.8526132 29.29308393 -41.421875 15.25390625 C-29.16357598 3.84577958 -16.55911704 0 0 0 Z " fill="#6C8786" transform="translate(727,358)"/>
<path d="M0 0 C6.7565419 2.25218063 6.7565419 2.25218063 9.734375 4.50390625 C10.38575439 4.9925415 11.03713379 5.48117676 11.70825195 5.98461914 C12.38202881 6.50531982 13.05580566 7.02602051 13.75 7.5625 C14.45664795 8.10189209 15.1632959 8.64128418 15.89135742 9.19702148 C21.51838477 13.53515149 26.86890998 18.08199511 32 23 C32.87914062 23.81597656 33.75828125 24.63195312 34.6640625 25.47265625 C46.0942061 36.40373724 54.57544323 49.10449925 62 63 C62.68835938 64.2375 62.68835938 64.2375 63.390625 65.5 C70.25824152 78.36591449 74.2045302 92.75715083 77 107 C77.17877686 107.87938232 77.35755371 108.75876465 77.54174805 109.66479492 C79.04506795 117.69834897 79.34692664 125.52633099 79.3125 133.6875 C79.31134186 134.35453949 79.31018372 135.02157898 79.30899048 135.70883179 C79.27692737 145.13076602 78.80198422 154.44954908 77.6875 163.8125 C77.56995361 164.80016357 77.45240723 165.78782715 77.33129883 166.80541992 C76.48368256 173.1037775 74.94514558 178.96063146 73 185 C72.53703764 186.62368725 72.07816801 188.24855197 71.625 189.875 C64.5313064 213.2190427 51.0263946 231.9913302 35 250 C34.09507812 251.01707031 34.09507812 251.01707031 33.171875 252.0546875 C24.37872367 261.33634724 12.99481468 269.5617612 2 276 C1.34 276 0.68 276 0 276 C0 184.92 0 93.84 0 0 Z " fill="#6B8786" transform="translate(505,382)"/>
<path d="M0 0 C17.00508118 -0.0941859 34.01007891 -0.16433758 51.01536274 -0.20724869 C58.9143842 -0.22771843 66.81324197 -0.25553327 74.7121582 -0.30175781 C81.61117167 -0.34211105 88.51006641 -0.36754539 95.40919465 -0.37635398 C99.04929132 -0.38148847 102.68904888 -0.39321265 106.32903481 -0.42292023 C132.0699781 -0.62455459 162.52254568 -0.57388512 185.85864258 11.91992188 C188.83796764 13.42266205 191.93294568 14.68554815 195 16 C195 37.78 195 59.56 195 82 C191.67575573 80.00545344 188.7099082 78.09100237 185.625 75.8125 C166.82618827 62.70025981 146.60130417 55.88739623 123.73681641 55.81054688 C122.39751939 55.802594 121.0582249 55.79420523 119.71893311 55.78541565 C116.84723273 55.76743588 113.97553764 55.75239373 111.10380936 55.73963928 C106.56627058 55.71934723 102.02879451 55.69170919 97.49130249 55.66296387 C87.04925866 55.59791775 76.60716891 55.54225924 66.16506958 55.48697662 C56.5759787 55.43615179 46.98691096 55.38334953 37.39787805 55.32245111 C32.88304039 55.29405947 28.36821048 55.27048097 23.85332799 55.25052643 C21.72648312 55.24038591 19.59966588 55.22800144 17.47283936 55.21458435 C14.87438021 55.19820149 12.27589508 55.18542244 9.67739868 55.17677307 C8.54181519 55.16842941 7.40623169 55.16008575 6.23623657 55.15148926 C4.74689071 55.14375866 4.74689071 55.14375866 3.22745705 55.13587189 C1 55 1 55 0 54 C-0.09353163 52.31198015 -0.11744791 50.62004793 -0.11352539 48.92944336 C-0.11344986 47.84839828 -0.11337433 46.76735321 -0.11329651 45.65354919 C-0.10813522 44.4775264 -0.10297394 43.3015036 -0.09765625 42.08984375 C-0.0962413 40.89267227 -0.09482635 39.69550079 -0.09336853 38.46205139 C-0.08774979 34.62050934 -0.07519411 30.77902457 -0.0625 26.9375 C-0.05748741 24.34049563 -0.05292409 21.74349035 -0.04882812 19.14648438 C-0.03777427 12.76430321 -0.02101792 6.3821557 0 0 Z " fill="#6C8787" transform="translate(297,358)"/>
</svg>
